<svg xmlns="http://www.w3.org/2000/svg" width="1280" height="760" viewBox="0 0 1280 760" role="img" aria-label="EfficientTime plan screen preview">
  <defs>
    <linearGradient id="bg" x1="0" y1="0" x2="1" y2="1">
      <stop offset="0%" stop-color="#eefafa"/>
      <stop offset="100%" stop-color="#ecf7ef"/>
    </linearGradient>
    <filter id="shadow" x="-20%" y="-20%" width="140%" height="140%">
      <feDropShadow dx="0" dy="14" stdDeviation="20" flood-color="#6b9995" flood-opacity="0.18"/>
    </filter>
    <style>
      .ui { font-family: -apple-system, BlinkMacSystemFont, "Segoe UI", sans-serif; }
      .mono { font-family: SFMono-Regular, Menlo, monospace; }
      .title { font-size: 24px; font-weight: 800; fill: #1d2c2e; }
      .muted { fill: #6e7e80; }
    </style>
  </defs>

  <rect width="1280" height="760" rx="28" fill="url(#bg)"/>
  <rect x="36" y="32" width="1208" height="696" rx="22" fill="#fbffff" filter="url(#shadow)"/>
  <rect x="36" y="32" width="1208" height="48" rx="22" fill="#e5f4f3"/>
  <circle cx="68" cy="56" r="8" fill="#ff5f57"/>
  <circle cx="94" cy="56" r="8" fill="#ffbd2e"/>
  <circle cx="120" cy="56" r="8" fill="#28c840"/>
  <text class="ui" x="156" y="63" font-size="18" font-weight="800" fill="#203233">EfficientTime</text>

  <rect x="64" y="108" width="290" height="586" rx="18" fill="#eff8f5"/>
  <text class="ui title" x="88" y="146">快速添加</text>
  <rect x="88" y="168" width="242" height="38" rx="9" fill="#ffffff" stroke="#c8dedc"/>
  <text class="ui muted" x="104" y="193" font-size="14">任务名称</text>
  <rect x="88" y="220" width="112" height="36" rx="9" fill="#ffffff" stroke="#c8dedc"/>
  <text class="ui muted" x="104" y="243" font-size="14">开始</text>
  <rect x="218" y="220" width="112" height="36" rx="9" fill="#ffffff" stroke="#c8dedc"/>
  <text class="ui muted" x="234" y="243" font-size="14">结束</text>
  <rect x="88" y="272" width="242" height="42" rx="12" fill="#0f8ea0"/>
  <text class="ui" x="188" y="299" font-size="15" font-weight="800" fill="#ffffff">添加</text>

  <text class="ui" x="88" y="358" font-size="18" font-weight="800" fill="#1f2d2f">选择日期</text>
  <rect x="88" y="378" width="242" height="180" rx="14" fill="#ffffff" stroke="#d2e5e0"/>
  <text class="ui" x="160" y="406" font-size="15" font-weight="800" fill="#244345">2026 年 5 月</text>
  <g class="ui" font-size="11" fill="#8b9998">
    <text x="108" y="438">日</text><text x="140" y="438">一</text><text x="172" y="438">二</text><text x="204" y="438">三</text><text x="236" y="438">四</text><text x="268" y="438">五</text><text x="300" y="438">六</text>
  </g>
  <g class="ui" font-size="12" text-anchor="middle">
    <circle cx="236" cy="490" r="15" fill="#0f8ea0"/>
    <text x="236" y="495" fill="#fff" font-weight="800">22</text>
    <text x="108" y="468" fill="#344">17</text><text x="140" y="468" fill="#344">18</text><text x="172" y="468" fill="#344">19</text><text x="204" y="468" fill="#344">20</text>
    <text x="268" y="495" fill="#344">23</text><text x="300" y="495" fill="#344">24</text>
  </g>
  <text class="ui" x="88" y="606" font-size="17" font-weight="800" fill="#1f2d2f">本周概览</text>
  <rect x="88" y="626" width="54" height="30" rx="10" fill="#d7f0ee"/><text class="ui" x="103" y="646" font-size="13" font-weight="700" fill="#0f8191">今天</text>
  <rect x="152" y="626" width="54" height="30" rx="10" fill="#ffffff" stroke="#d6e5e2"/><text class="ui muted" x="168" y="646" font-size="13">周六</text>

  <text class="ui" x="390" y="146" font-size="30" font-weight="900" fill="#202b2d">今天时间表</text>
  <text class="ui muted" x="390" y="178" font-size="16">完成 2/5 · 09:30-21:30 · 草稿</text>
  <rect x="644" y="116" width="118" height="38" rx="11" fill="#0f8ea0"/>
  <text class="ui" x="676" y="140" font-size="15" font-weight="800" fill="#ffffff">开始执行</text>

  <g class="ui">
    <rect x="390" y="214" width="510" height="78" rx="16" fill="#dff3ff" stroke="#1289a7" stroke-width="2"/>
    <text class="mono" x="422" y="248" font-size="22" fill="#1f2d2f">09:30</text>
    <text class="mono" x="422" y="274" font-size="18" fill="#6e7e80">09:50</text>
    <rect x="510" y="233" width="5" height="42" rx="2" fill="#1397ff"/>
    <text x="542" y="250" font-size="21" font-weight="900" fill="#1f2d2f">查看投资账户</text>
    <text x="542" y="276" font-size="14" fill="#6c797a">20 分钟</text>
    <rect x="804" y="236" width="62" height="26" rx="13" fill="#d6f6de"/>
    <text x="818" y="254" font-size="13" font-weight="800" fill="#2e8c47">已完成</text>

    <rect x="390" y="312" width="510" height="72" rx="14" fill="#e6f5fc"/>
    <text class="mono" x="422" y="345" font-size="20" fill="#1f2d2f">10:00</text>
    <text class="mono" x="422" y="369" font-size="17" fill="#6e7e80">11:00</text>
    <rect x="510" y="329" width="5" height="38" rx="2" fill="#1c91b0"/>
    <text x="542" y="346" font-size="19" font-weight="800" fill="#1f2d2f">阅读论文综述</text>
    <text x="542" y="370" font-size="13" fill="#708080">60 分钟</text>
    <rect x="804" y="334" width="62" height="26" rx="13" fill="#d9f4fb"/>
    <text x="818" y="352" font-size="13" font-weight="800" fill="#0a8cab">已跳过</text>

    <rect x="390" y="402" width="510" height="72" rx="14" fill="#e6f5fc"/>
    <text class="mono" x="422" y="435" font-size="20" fill="#1f2d2f">11:10</text>
    <text class="mono" x="422" y="459" font-size="17" fill="#6e7e80">12:40</text>
    <rect x="510" y="419" width="5" height="38" rx="2" fill="#268bff"/>
    <text x="542" y="436" font-size="19" font-weight="800" fill="#1f2d2f">实现核心功能</text>
    <text x="542" y="460" font-size="13" fill="#708080">90 分钟</text>

    <rect x="390" y="492" width="510" height="72" rx="14" fill="#f2ebff"/>
    <text class="mono" x="422" y="525" font-size="20" fill="#1f2d2f">14:00</text>
    <text class="mono" x="422" y="549" font-size="17" fill="#6e7e80">15:00</text>
    <rect x="510" y="509" width="5" height="38" rx="2" fill="#9b5de5"/>
    <text x="542" y="526" font-size="19" font-weight="800" fill="#1f2d2f">整理 3D viewer 可视化</text>
    <text x="542" y="550" font-size="13" fill="#708080">已推迟 20 分钟</text>
  </g>

  <rect x="930" y="108" width="284" height="586" rx="18" fill="#eff8f5"/>
  <text class="ui" x="954" y="146" font-size="20" font-weight="900" fill="#1f2d2f">24 小时状态</text>
  <text class="ui muted" x="954" y="170" font-size="13">230 分钟已安排</text>
  <text class="ui" x="1162" y="150" font-size="12" font-weight="800" fill="#0f8191" text-anchor="end">5 项</text>

  <g transform="translate(952 194)">
    <circle cx="78" cy="78" r="68" fill="none" stroke="#c7e6ff" stroke-width="14"/>
    <circle cx="78" cy="78" r="48" fill="none" stroke="#c7f0d6" stroke-width="14"/>
    <circle cx="78" cy="78" r="68" fill="none" stroke="#268bff" stroke-width="14" stroke-dasharray="58 369" stroke-linecap="butt" transform="rotate(-90 78 78)"/>
    <circle cx="78" cy="78" r="68" fill="none" stroke="#9b5de5" stroke-width="14" stroke-dasharray="76 351" stroke-dashoffset="-205" stroke-linecap="butt" transform="rotate(-90 78 78)"/>
    <circle cx="78" cy="78" r="48" fill="none" stroke="#33a852" stroke-width="14" stroke-dasharray="96 206" stroke-dashoffset="-34" stroke-linecap="butt" transform="rotate(-90 78 78)"/>
    <g class="ui" font-size="8" font-weight="700" fill="#6e7e80" text-anchor="middle" dominant-baseline="middle">
      <text x="78" y="0">12</text><text x="117" y="11">1</text><text x="145" y="39">2</text><text x="156" y="78">3</text>
      <text x="145" y="117">4</text><text x="117" y="145">5</text><text x="78" y="156">6</text><text x="39" y="145">7</text>
      <text x="11" y="117">8</text><text x="0" y="78">9</text><text x="11" y="39">10</text><text x="39" y="11">11</text>
    </g>
    <text class="ui" x="78" y="75" font-size="22" font-weight="900" fill="#1d2c2e" text-anchor="middle">40%</text>
    <text class="ui muted" x="78" y="94" font-size="11" text-anchor="middle">完成</text>
  </g>

  <g class="ui" transform="translate(1128 210)">
    <text x="0" y="0" font-size="12" font-weight="800" fill="#1d2c2e">状态示意</text>
    <circle cx="4" cy="24" r="4" fill="#268bff"/><text x="16" y="28" font-size="11" fill="#46585b">待开始</text>
    <circle cx="4" cy="48" r="4" fill="#f59e0b"/><text x="16" y="52" font-size="11" fill="#46585b">进行中</text>
    <circle cx="4" cy="72" r="4" fill="#33a852"/><text x="16" y="76" font-size="11" fill="#46585b">已完成</text>
    <circle cx="4" cy="96" r="4" fill="#0a8cab"/><text x="16" y="100" font-size="11" fill="#46585b">已跳过</text>
    <circle cx="4" cy="120" r="4" fill="#9b5de5"/><text x="16" y="124" font-size="11" fill="#46585b">已推迟</text>
    <circle cx="4" cy="144" r="4" fill="#8e8e93"/><text x="16" y="148" font-size="11" fill="#46585b">已删除</text>
  </g>

  <rect x="954" y="438" width="236" height="68" rx="12" fill="#ffffff" opacity="0.7" stroke="#d8e8e5"/>
  <text class="ui" x="972" y="464" font-size="13" font-weight="800" fill="#1f2d2f">10:20 有 1 项任务</text>
  <text class="ui muted" x="972" y="488" font-size="12">阅读论文综述 · 10:00-11:00</text>
  <text class="ui" x="954" y="548" font-size="16" font-weight="900" fill="#1f2d2f">状态归类</text>
  <rect x="954" y="568" width="236" height="32" rx="9" fill="#def7e6"/><text class="ui" x="972" y="589" font-size="12" font-weight="800" fill="#2e8c47">已完成 1</text>
  <rect x="954" y="608" width="236" height="32" rx="9" fill="#e0f5fb"/><text class="ui" x="972" y="629" font-size="12" font-weight="800" fill="#0a8cab">已跳过 1</text>
  <rect x="954" y="648" width="236" height="32" rx="9" fill="#f0e7ff"/><text class="ui" x="972" y="669" font-size="12" font-weight="800" fill="#8b5cf6">已推迟 1</text>
</svg>
